Coordinates
version=1
nRows=26
nColumns=24
inDegrees=yes

Units are S.I. units (second, meters, Newtons, ...)
Angles are in degrees.

endheader
time	pelvis_tilt	pelvis_list	pelvis_rotation	pelvis_tx	pelvis_ty	pelvis_tz	hip_flexion_r	hip_adduction_r	hip_rotation_r	knee_angle_r	ankle_angle_r	subtalar_angle_r	mtp_angle_r	hip_flexion_l	hip_adduction_l	hip_rotation_l	knee_angle_l	ankle_angle_l	subtalar_angle_l	mtp_angle_l	lumbar_extension	lumbar_bending	lumbar_rotation
      0.52500000	      0.25424950	      3.05349695	     -1.86980278	     -0.82864804	      1.05182490	      0.35989217	     21.51175866	      1.10026275	     -7.83252437	     -0.00242518	      2.38020631	     -2.30380498	     -0.12221348	    -15.71364635	      7.65265146	     -3.23592784	     -4.97119534	     10.96193226	      3.09205063	      0.03728452	      4.04962599	     -0.85196905	     -2.79725602
      0.52916667	      0.21770334	      3.02532401	     -1.90947563	     -0.82291548	      1.05133483	      0.36013629	     21.48382841	      1.21982079	     -7.79498244	     -0.17564788	      2.37191879	     -2.30539652	     -0.12363763	    -15.80855025	      7.62228934	     -3.18230860	     -5.36159442	     10.94114055	      3.07807872	      0.03239853	      4.07429285	     -0.83463096	     -2.80869858
      0.53333333	      0.23018292	      3.02181603	     -1.91863253	     -0.81727989	      1.05094275	      0.36027208	     21.41331827	      1.28816688	     -7.75213395	     -0.39582302	      2.36731527	     -2.33520906	     -0.12762449	    -15.91676476	      7.61629920	     -3.19790487	     -5.82717681	     10.92641829	      3.02663896	      0.02007234	      4.13601706	     -0.77394912	     -2.83704385
      0.53750000	      0.23011094	      2.99571524	     -1.94680231	     -0.81149167	      1.05057752	      0.36043952	     21.34748669	      1.38418656	     -7.68819939	     -0.66933241	      2.34330419	     -2.37341588	     -0.13143955	    -15.99955938	      7.58735761	     -3.20628568	     -6.32824446	     10.90414218	      2.97508791	      0.00871705	      4.17722610	     -0.72139973	     -2.86193249
      0.54166667	      0.22938599	      2.96655951	     -1.97589330	     -0.80567594	      1.05022858	      0.36058799	     21.28303958	      1.47750174	     -7.60171255	     -0.98763363	      2.29557742	     -2.41805587	     -0.13482906	    -16.07240597	      7.55426822	     -3.21097594	     -6.84744368	     10.86811943	      2.92975377	     -0.00074420	      4.21818879	     -0.66568460	     -2.88292102
      0.54583333	      0.23383514	      2.93612328	     -2.00386339	     -0.79984651	      1.04990878	      0.36071856	     21.21024946	      1.56486055	     -7.49112217	     -1.33433922	      2.21639348	     -2.47720090	     -0.13840881	    -16.13707632	      7.51922116	     -3.23131973	     -7.39251537	     10.81242615	      2.88381764	     -0.00974646	      4.25847010	     -0.60100388	     -2.90353931
      0.55000000	      0.24063892	      2.90384731	     -2.03238301	     -0.79399290	      1.04962676	      0.36083845	     21.12994832	      1.64809104	     -7.35216381	     -1.69599415	      2.09658586	     -2.55515554	     -0.14233174	    -16.17865099	      7.47911960	     -3.27229702	     -7.98905378	     10.73541730	      2.83922256	     -0.01813249	      4.29468480	     -0.52806166	     -2.92421750
      0.55416667	      0.24020805	      2.81557751	     -2.19879822	     -0.78795930	      1.04931465	      0.36144890	     20.97378685	      1.87902047	     -6.49373528	     -1.90253959	      1.38645101	     -3.71935390	     -0.18624945	    -16.20777362	      7.37570427	     -3.64924946	     -8.57564608	     10.43328434	      2.91764022	     -0.08593659	      4.33994826	     -0.49637292	     -2.96164921
      0.55833333	      0.22852034	      2.78592107	     -2.23455013	     -0.78208943	      1.04907651	      0.36158780	     20.92177310	      1.95240659	     -6.41259320	     -2.32902505	      1.23610759	     -3.84854902	     -0.19319116	    -16.18101590	      7.33089381	     -3.73917488	     -9.26242512	     10.37310152	      2.93276570	     -0.09238650	      4.30135857	     -0.38039821	     -2.96755009
      0.56250000	      0.20474390	      2.71547839	     -2.28928059	     -0.77604445	      1.04885984	      0.36185012	     20.83387366	      2.08346431	     -6.14976096	     -2.66298706	      0.77596942	     -4.09402596	     -0.20537731	    -16.12685293	      7.22770738	     -3.99745835	     -9.98446528	     10.14504530	      3.05131015	     -0.09515837	      4.35348940	     -0.28865114	     -2.95931038
      0.56666667	      0.18586356	      2.64055123	     -2.33202639	     -0.76998637	      1.04870064	      0.36212794	     20.72694909	      2.21276874	     -5.85818032	     -2.99521750	      0.35690129	     -4.44834356	     -0.21562086	    -16.05468543	      7.10896745	     -4.23382880	    -10.74927092	      9.92809603	      3.20945969	     -0.08354141	      4.41127917	     -0.17632241	     -2.94555472
      0.57083333	      0.24589129	      2.59004003	     -2.35101329	     -0.76405924	      1.04869445	      0.36216153	     20.56101712	      2.27016308	     -5.72587903	     -3.39402636	      0.23828136	     -4.48121747	     -0.21636076	    -16.05365594	      7.03484269	     -4.22633269	    -11.53010075	      9.83332257	      3.22095376	     -0.07959835	      4.50974126	     -0.09590946	     -2.94457633
      0.57500000	      0.20909282	      2.47166525	     -2.48987978	     -0.75789673	      1.04855144	      0.36293305	     20.41192861	      2.51449339	     -4.96102003	     -3.60062590	     -0.69212202	     -5.77807564	     -0.23147856	    -15.90812662	      6.83382943	     -4.81565024	    -12.39873423	      9.53185554	      3.88036522	      0.05453218	      4.57493550	      0.06071528	     -2.87088465
      0.57916667	      0.23277148	      2.37278633	     -2.54923874	     -0.75181240	      1.04856905	      0.36315445	     20.27695776	      2.64079669	     -4.89921443	     -3.98870856	     -1.07311699	     -5.83633412	     -0.23254945	    -15.80983531	      6.68365933	     -5.12815069	    -13.28557177	      9.21036073	      3.96804874	      0.09727293	      4.60092420	      0.16510901	     -2.87362636
      0.58333333	      0.24536668	      2.25939612	     -2.59447649	     -0.74567332	      1.04862923	      0.36341572	     20.12513170	      2.78071768	     -4.74007246	     -4.32631048	     -1.57081383	     -6.02271436	     -0.23335496	    -15.67362081	      6.49936519	     -5.44880531	    -14.22303540	      8.77415657	      4.16993827	      0.16327433	      4.63298947	      0.33313071	     -2.88599717
      0.58750000	      0.26357930	      2.14105760	     -2.64518483	     -0.73954036	      1.04872317	      0.36372694	     19.96724662	      2.92527287	     -4.56578180	     -4.67037401	     -2.04446725	     -6.29648928	     -0.23255066	    -15.51386854	      6.29737843	     -5.80414919	    -15.21704269	      8.34361007	      4.40518256	      0.24988766	      4.66895635	      0.48766529	     -2.89643964
      0.59166667	      0.28079284	      2.01228646	     -2.68673398	     -0.73339480	      1.04887021	      0.36404292	     19.80298923	      3.07621494	     -4.38082027	     -5.00920243	     -2.51071938	     -6.60593038	     -0.23042532	    -15.32436930	      6.07078509	     -6.16446458	    -16.25654915	      7.87003121	      4.65899435	      0.35673827	      4.70055468	      0.65400312	     -2.90905619
      0.59583333	      0.30724809	      1.87868758	     -2.72260473	     -0.72726296	      1.04905679	      0.36437639	     19.63077177	      3.22597542	     -4.20568010	     -5.35802051	     -2.94161879	     -6.91643358	     -0.22666353	    -15.11382630	      5.82639273	     -6.52584687	    -17.34975607	      7.36063759	      4.91029490	      0.48294873	      4.72288337	      0.81288280	     -2.92169974
      0.60000000	      0.33079366	      1.73355449	     -2.74766034	     -0.72111406	      1.04928353	      0.36469385	     19.45870462	      3.37952377	     -4.05942387	     -5.71189092	     -3.32536520	     -7.18891180	     -0.22216606	    -14.87191269	      5.55829268	     -6.87484043	    -18.48791251	      6.80131440	      5.13717495	      0.61927649	      4.74391640	      0.99018158	     -2.93889380
      0.60416667	      0.36305490	      1.57323571	     -2.76889318	     -0.71498177	      1.04955856	      0.36499720	     19.27972981	      3.54229956	     -3.94393384	     -6.07670564	     -3.67223989	     -7.43134067	     -0.21753400	    -14.60777233	      5.26478929	     -7.22582938	    -19.68207579	      6.20366399	      5.34493780	      0.76319251	      4.75653022	      1.18592171	     -2.96228254
      0.60833333	      0.39252107	      1.41035256	     -2.77991750	     -0.70886666	      1.04985237	      0.36531130	     19.10457397	      3.70302556	     -3.83758572	     -6.44962572	     -3.98293022	     -7.66027468	     -0.21235274	    -14.31014944	      4.95451615	     -7.55225142	    -20.91547746	      5.52984401	      5.54609486	      0.92633999	      4.76755808	      1.37702966	     -2.98693395
      0.61250000	      0.42360115	      1.24005703	     -2.79133989	     -0.70277695	      1.05017932	      0.36559757	     18.93295953	      3.86491971	     -3.76971523	     -6.83967720	     -4.23055390	     -7.83947933	     -0.20780950	    -13.98208513	      4.63141183	     -7.86573067	    -22.20519493	      4.83417386	      5.70781921	      1.08408274	      4.77029999	      1.58822590	     -3.01763771
      0.61666667	      0.45428163	      1.05029935	     -2.78899171	     -0.69670227	      1.05052726	      0.36588699	     18.75617772	      4.04186143	     -3.71185292	     -7.22355212	     -4.44867368	     -8.00118596	     -0.20324914	    -13.62360715	      4.27264129	     -8.15799359	    -23.53248804	      4.04607611	      5.85229804	      1.26504415	      4.78454188	      1.81735549	     -3.05287121
      0.62083333	      0.48840760	      0.84427669	     -2.77362396	     -0.69063874	      1.05091125	      0.36616880	     18.57076078	      4.23027091	     -3.67964267	     -7.60678972	     -4.61556938	     -8.13480683	     -0.19861567	    -13.23733162	      3.88326015	     -8.42525295	    -24.90985559	      3.21507533	      5.96291735	      1.47038385	      4.78428659	      2.05400816	     -3.09329030
      0.62500000	      0.53005037	      0.61753579	     -2.73289387	     -0.68458418	      1.05132450	      0.36643413	     18.36002917	      4.43307330	     -3.63089548	     -7.96011155	     -4.74199965	     -8.24549267	     -0.19318830	    -12.83133808	      3.45752377	     -8.64625153	    -26.32349287	      2.30930725	      6.00560436	      1.75668242	      4.81666991	      2.26928233	     -3.13351148
      0.62916667	      0.56215672	      0.40160696	     -2.73933618	     -0.67866636	      1.05170228	      0.36667978	     18.20295704	      4.62615626	     -3.71008901	     -8.39730544	     -4.78346518	     -8.28128158	     -0.18981924	    -12.37799953	      3.05688904	     -8.88347599	    -27.78741678	      1.51992276	      6.06177725	      1.95087310	      4.74220048	      2.59693464	     -3.19514755
